<?xml version="1.0" standalone="no"?>
<!DOCTYPE svg PUBLIC "-//W3C//DTD SVG 20010904//EN"
 "http://www.w3.org/TR/2001/REC-SVG-20010904/DTD/svg10.dtd">
<svg version="1.0" xmlns="http://www.w3.org/2000/svg"
 width="600.000000pt" height="365.000000pt" viewBox="0 0 600.000000 365.000000"
 preserveAspectRatio="xMidYMid meet">

<g transform="translate(0.000000,365.000000) scale(0.100000,-0.100000)"
fill="#000000" stroke="none">
<path d="M0 1825 l0 -1825 3000 0 3000 0 0 1825 0 1825 -3000 0 -3000 0 0
-1825z m2543 1293 c47 -24 79 -79 79 -133 0 -34 -7 -55 -27 -80 -49 -65 -107
-80 -175 -45 -31 16 -41 29 -55 69 -21 64 -7 121 40 168 27 27 41 33 75 33 23
0 51 -5 63 -12z m441 -3 c36 -17 76 -85 76 -127 0 -49 -37 -113 -75 -131 -45
-21 -75 -21 -119 -1 -64 31 -95 128 -62 192 39 74 110 100 180 67z m467 -24
c37 -36 39 -42 39 -99 0 -77 -12 -104 -60 -131 -98 -55 -200 11 -200 129 0 49
3 56 44 96 39 40 48 44 91 44 42 0 52 -5 86 -39z m-2190 -177 c61 -58 63 -143
4 -206 -31 -35 -38 -38 -88 -38 -41 0 -61 6 -82 22 -52 41 -71 129 -40 189 39
74 146 91 206 33z m3676 -9 c56 -65 54 -137 -6 -203 -27 -28 -36 -32 -84 -32
-84 0 -137 54 -137 139 0 92 55 145 145 138 42 -4 54 -10 82 -42z m-1185 -181
c11 -10 29 -38 40 -61 26 -58 16 -104 -32 -154 -33 -35 -42 -39 -86 -39 -73 0
-109 26 -129 93 -15 51 -14 58 2 103 14 37 27 53 53 67 44 23 121 18 152 -9z
m-1183 -99 c67 -61 72 -151 12 -212 -49 -48 -101 -55 -162 -21 -80 45 -86 166
-12 235 28 27 42 33 79 33 36 0 51 -6 83 -35z m-1630 -151 c47 -10 91 -75 91
-134 0 -82 -55 -140 -133 -140 -55 0 -89 22 -116 75 -27 53 -23 94 12 150 31
48 75 63 146 49z m571 -9 c92 -47 92 -202 1 -250 -62 -31 -152 -8 -182 47 -18
34 -16 129 5 160 34 52 118 73 176 43z m3114 6 c39 -15 76 -78 76 -129 0 -59
-32 -115 -74 -130 -79 -29 -143 -6 -176 63 -27 55 -21 103 17 153 37 49 97 65
157 43z m553 -4 c95 -53 96 -204 2 -253 -65 -33 -148 -9 -179 52 -19 39 -18
111 4 152 28 54 119 79 173 49z m-1415 -225 c46 -51 55 -98 29 -157 -34 -78
-113 -105 -191 -67 -49 24 -77 100 -60 162 7 25 25 56 42 72 26 24 38 28 88
28 54 0 60 -2 92 -38z m-1190 -89 c67 -68 66 -155 -3 -218 -32 -28 -47 -35
-82 -35 -89 0 -150 91 -125 189 24 96 142 132 210 64z m-1615 -96 c66 -37 93
-141 54 -205 -26 -40 -76 -72 -115 -72 -43 0 -92 35 -115 84 -26 52 -26 69 -1
123 31 70 116 104 177 70z m581 -32 c44 -45 44 -45 40 -105 -3 -46 -10 -66
-29 -86 -57 -61 -115 -69 -177 -24 -52 38 -70 104 -49 180 12 41 73 80 125 80
40 0 50 -5 90 -45z m3092 30 c65 -34 91 -136 50 -203 -61 -99 -185 -91 -232
15 -14 32 -18 55 -13 82 8 42 48 99 79 111 33 14 84 11 116 -5z m571 -23 c64
-59 67 -139 8 -207 -97 -110 -255 -5 -219 145 15 62 64 100 128 100 36 0 49
-6 83 -38z m-3968 -274 c42 -16 81 -89 74 -139 -12 -91 -98 -147 -180 -118
-52 18 -79 55 -84 116 -8 85 26 136 102 153 31 7 40 5 88 -12z m1347 -23 c108
-115 -16 -299 -153 -228 -40 20 -53 38 -66 89 -20 77 21 155 89 172 45 11 102
-3 130 -33z m1773 26 c97 -37 97 -217 1 -257 -37 -15 -105 -13 -129 4 -38 27
-65 76 -65 118 0 113 88 175 193 135z m-3637 -25 c36 -42 50 -98 35 -147 -24
-78 -86 -112 -167 -90 -29 8 -46 21 -67 53 -36 55 -36 110 -1 161 32 48 55 58
123 53 44 -2 59 -8 77 -30z m1080 15 c39 -24 58 -76 52 -142 -17 -168 -260
-149 -260 20 0 56 27 111 64 129 37 18 110 14 144 -7z m3112 5 c41 -21 76 -89
69 -137 -16 -122 -171 -172 -238 -78 -48 68 -29 187 36 215 40 17 99 17 133 0z
m552 -1 c64 -33 82 -149 35 -211 -51 -67 -155 -68 -209 -3 -49 57 -30 180 32
213 35 20 105 20 142 1z m-1705 -38 c18 -18 39 -52 45 -74 12 -38 11 -46 -11
-90 -18 -36 -35 -53 -68 -70 -49 -25 -75 -23 -128 9 -38 22 -68 99 -57 144 19
81 58 113 138 114 41 0 53 -5 81 -33z m-3058 -432 c28 -19 63 -88 63 -125 0
-14 -9 -44 -20 -67 -42 -94 -176 -97 -228 -4 -33 58 -29 110 11 162 18 24 44
47 57 51 34 10 87 2 117 -17z m1099 -3 c36 -27 54 -67 54 -119 0 -60 -16 -91
-59 -120 -42 -28 -95 -30 -138 -3 -48 29 -64 61 -64 126 0 52 3 60 37 95 20
21 47 40 58 42 33 7 87 -3 112 -21z m781 -16 c59 -63 62 -141 7 -199 -47 -51
-100 -60 -164 -27 -96 49 -80 229 23 259 52 16 98 4 134 -33z m1767 30 c99
-41 114 -195 24 -252 -147 -93 -287 113 -156 233 37 34 81 40 132 19z m1121
-14 c47 -41 54 -56 55 -118 0 -47 -5 -67 -21 -88 -58 -74 -160 -74 -218 0 -16
21 -21 41 -21 90 0 59 2 66 35 98 19 19 44 37 57 39 36 8 91 -3 113 -21z
m-1758 -3 c44 -16 80 -57 93 -105 11 -39 10 -48 -11 -91 -45 -89 -115 -114
-187 -66 -35 23 -46 37 -58 79 -13 45 -13 55 1 94 16 46 32 63 80 85 37 17 46
18 82 4z m-3019 -459 c34 -21 71 -87 72 -127 1 -112 -130 -184 -210 -117 -66
56 -78 137 -29 203 45 62 108 77 167 41z m1121 -24 c35 -35 36 -39 36 -107 0
-71 0 -71 -40 -105 -105 -89 -243 4 -214 144 7 35 50 88 84 103 40 17 96 3
134 -35z m739 24 c45 -27 72 -76 72 -128 0 -117 -125 -183 -211 -113 -76 63
-71 182 10 237 43 29 85 31 129 4z m480 6 c49 -26 75 -62 79 -113 17 -168
-182 -228 -249 -77 -25 58 -18 102 24 150 48 54 94 67 146 40z m484 -35 c34
-36 38 -46 38 -93 -1 -63 -13 -89 -60 -123 -51 -37 -106 -34 -155 8 -36 32
-39 38 -43 99 -4 62 -3 67 29 102 41 47 63 57 114 51 31 -3 49 -13 77 -44z
m856 19 c80 -58 81 -177 3 -235 -25 -18 -48 -25 -78 -25 -37 0 -50 6 -85 38
-37 35 -42 45 -45 93 -5 63 17 107 69 139 47 28 88 25 136 -10z m1114 -19 c35
-37 38 -45 38 -98 0 -66 -13 -91 -64 -122 -43 -27 -89 -27 -132 0 -52 31 -64
56 -64 124 0 57 2 63 38 97 46 44 57 48 107 43 31 -3 48 -13 77 -44z"/>
</g>
</svg>
